<svg xmlns="http://www.w3.org/2000/svg" width="64" height="64" viewBox="0 0 64 64" role="img">
  <rect width="64" height="64" rx="14" fill="#14161a"/>
  <rect x="0.75" y="0.75" width="62.5" height="62.5" rx="13.25" fill="none" stroke="#23262c"/>
  <g transform="translate(20 20)" fill="none" stroke="#7d9b8a" stroke-width="1.75" stroke-linecap="round" stroke-linejoin="round">
    <path d="M12 7v14"/><path d="M3 18a1 1 0 0 1-1-1V4a1 1 0 0 1 1-1h5a4 4 0 0 1 4 4 4 4 0 0 1 4-4h5a1 1 0 0 1 1 1v13a1 1 0 0 1-1 1h-6a3 3 0 0 0-3 3 3 3 0 0 0-3-3z"/>
  </g>
</svg>
